<?xml version="1.0" encoding="UTF-8"?>
<svg width="299px" height="299px" viewBox="0 0 299 299" version="1.1" xmlns="http://www.w3.org/2000/svg" xmlns:xlink="http://www.w3.org/1999/xlink">
    <title>LOGO图像</title>
    <g id="页面-1" stroke="none" stroke-width="1" fill="none" fill-rule="evenodd">
        <g id="LOGO图像" transform="translate(29.9, 29.9) scale(0.80)">
            <rect id="矩形" fill="#8062EC" x="0" y="0" width="299" height="299" rx="30"></rect>
            <g id="笔尾" transform="translate(106.322, 24.5888)" fill="#FFFFFF" fill-rule="nonzero">
                <path d="M13.6713816,152.950883 C9.73717105,156.885093 11.7042763,160.819304 19.1792763,164.360093 C25.2773026,167.212396 34.5226974,175.375883 39.8338816,182.555817 C41.7026316,185.211409 43.6697368,187.375225 44.0631579,187.375225 C44.3582237,187.375225 46.71875,184.621277 49.0792763,181.375554 C54.0953947,174.490685 61.8654605,167.704172 68.9470395,164.163383 C75.7335526,160.720948 77.4055921,156.688383 73.6680921,152.950883 C71.7993421,151.082133 70.4223684,150.983777 43.6697368,150.983777 C16.9171053,150.983777 15.5401316,151.082133 13.6713816,152.950883"></path>
                <path d="M34.7194079,12.9913431 C26.6542763,32.5640404 13.6713816,54.8906852 4.52434211,65.0212773 L0,70.0373957 L3.34407895,77.8074615 C9.44210526,91.9706194 15.8351974,118.231475 17.4088816,135.738711 L18.0973684,143.607133 L43.9648026,143.902198 L69.7338816,144.098909 L69.7338816,139.279501 C69.7338816,127.181804 76.8154605,95.8064746 83.3069079,79.3811457 L87.0444079,69.7423299 L83.0118421,65.2179878 C73.2746711,54.4972641 59.3082237,29.9084483 51.6365132,10.1390404 C49.5710526,4.82785621 47.5055921,0.303514104 47.0138158,0.00844831453 C46.5220395,-0.384972738 46.1286184,12.9913431 46.1286184,34.0393694 L46.1286184,68.7587773 L49.5710526,71.9061457 C53.8003289,75.7420009 54.0953947,79.6762115 50.45625,84.0038431 C48.3907895,86.5610799 47.2105263,87.0528562 43.6697368,87.0528562 C40.1289474,87.0528562 38.9486842,86.5610799 36.8832237,84.0038431 C33.0473684,79.5778562 33.7358553,75.1518694 38.9486842,70.8242378 L41.2108553,68.8571325 L41.0141447,33.9410141 C40.8174342,5.61469831 40.5223684,-0.483328001 39.5388158,1.68048779 C38.8503289,3.15581674 36.6865132,8.27029042 34.7194079,12.9913431 Z" id="笔尖"></path>
            </g>
            <path d="M33.4407895,131.312725 C37.6700658,127.083448 46.3253289,130.230817 48.9809211,136.918975 C49.5710526,138.492659 51.8332237,148.524896 53.9970395,159.44233 C54.0969079,159.941672 54.1980334,160.441643 54.3002033,160.941381 L54.6096331,162.43904 C56.6558674,172.241178 59.02375,181.620685 60.0950658,184.031146 C63.8325658,191.997922 71.8976974,199.079501 84.5855263,205.374238 C94.9128289,210.587067 98.3552632,211.865685 98.3552632,210.488711 C98.3552632,210.193646 95.6996711,205.964369 92.5523026,201.243317 C83.7986842,188.358777 80.1595395,180.785422 80.1595395,176.064369 C80.1595395,170.65483 81.9299342,168.687725 86.5526316,168.687725 C91.2736842,168.687725 93.0440789,170.163054 101.109211,180.982133 C106.715461,188.457133 109.174342,190.719304 116.944408,195.932133 C129.140461,203.997264 135.041776,209.89858 139.271053,218.357133 C143.697039,227.504172 144.582237,232.815356 144.582237,251.404501 L144.582237,267.042988 L98.3552632,267.042988 L98.3552632,262.813711 C98.3552632,258.092659 95.8963816,252.191343 92.1588816,247.765356 C90.7289474,246.049435 83.0161022,239.990914 74.8412783,234.067433 L74.0615132,233.503843 C53.4069079,218.652198 47.2105263,212.455817 44.4565789,204.095619 C43.4730263,201.095784 40.2273026,185.014698 37.2274671,169.118029 L36.8688276,167.212163 C34.0117221,151.985899 31.4736842,137.418619 31.4736842,135.246935 C31.4736842,134.165027 32.3588816,132.394633 33.4407895,131.312725 Z M253.854934,131.804501 C257.395724,128.952198 263.001974,128.460422 265.755921,131.017659 C266.837829,132.001211 267.526316,133.968317 267.526316,136.033777 C267.526316,138.211363 265.174523,152.664157 262.561739,167.435878 L262.124217,169.898734 C260.025714,181.660233 257.835372,193.202774 256.608882,198.489369 C253.264803,212.652527 251.199342,214.816343 219.725658,238.028185 C207.332895,247.076869 203.300329,252.289698 201.529934,261.240027 L200.349671,267.042988 L155.401316,267.042988 L155.401316,250.519304 C155.401316,232.028514 156.483224,226.127198 161.400987,216.783448 C165.138487,209.89858 173.597039,201.538383 181.465461,197.112396 C188.645395,193.07983 193.858224,187.965356 200.448026,178.523251 C206.250987,170.359764 208.316447,168.589369 212.447368,168.491014 C215.988158,168.392659 219.037171,170.85154 219.824013,174.687396 C220.610855,178.32654 218.447039,183.047593 209.103289,198.194304 C204.972368,204.784106 201.726645,210.685422 201.825,211.177198 C202.021711,211.570619 207.136184,209.505159 213.135855,206.554501 C226.807237,199.866343 235.4625,192.292988 239.298355,183.73608 C240.773684,180.293646 243.232566,170.458119 245.396382,159.343975 C248.901763,140.781386 249.89044,136.286531 252.073584,133.575954 L252.237539,133.37825 C252.431498,133.15097 252.635063,132.93475 252.850629,132.721664 L253.038394,132.5396 C253.292814,132.297379 253.563803,132.05629 253.854934,131.804501 Z M238.216447,135.738711 C241.953947,134.165027 243.625987,133.968317 244.314474,135.050225 C244.7315,135.780021 242.385727,147.782038 239.78108,159.532364 L239.485243,160.860896 C237.260188,170.807526 234.916628,180.259221 233.987171,182.162396 C231.921711,186.490027 223.856579,194.456804 218.447039,197.505817 L215.398026,199.276211 L220.414145,189.834106 C225.233553,180.785422 225.626974,179.605159 228.380921,162.983119 C231.823355,142.721935 233.59375,137.804172 238.216447,135.738711 Z M54.9805921,134.951869 C55.2756579,132.689698 63.3407895,135.640356 65.40625,138.88608 C66.2914474,140.164698 68.3569079,148.819961 69.9305921,158.163711 C73.4713816,178.621606 73.8648026,179.801869 79.2743421,190.030817 C81.6348684,194.555159 83.2085526,198.194304 82.8151316,198.194304 C81.0447368,198.194304 71.0125,190.325883 68.4552632,186.981804 C68.0834803,186.494945 67.7371911,186.02641 67.4116633,185.561141 L67.1976686,185.251281 C64.0674972,180.657295 62.86475,176.055517 59.0131579,156.885093 C55.5510526,139.731935 54.9215789,136.741935 54.9089895,135.627767 L54.9091673,135.547529 C54.9104325,135.470425 54.9148562,135.402144 54.9215034,135.337504 L54.9288572,135.273884 L54.9374857,135.21154 L54.9471812,135.149318 C54.9573409,135.086773 54.9687895,135.022685 54.9805921,134.951869 Z M224.545066,147.049567 C226.11875,147.049567 226.315461,147.541343 225.922039,149.705159 C225.626974,151.278843 224.840132,155.803185 224.25,159.934106 L223.069737,167.409106 L220.5125,165.04858 C219.135526,163.868317 217.463487,162.786409 216.775,162.786409 C213.332566,162.786409 216.283224,151.573909 220.414145,148.623251 C221.692763,147.738054 223.561513,147.049567 224.545066,147.049567 Z M74.5532895,147.049567 C79.0776316,147.049567 83.6019737,153.737725 83.6019737,160.327527 C83.6019737,161.999567 81.2414474,164.065027 76.61875,166.425554 C76.3236842,166.622264 75.5368421,163.278185 74.8483553,159.147264 C74.807856,158.898483 74.7670165,158.649022 74.7259567,158.39956 L74.6022369,157.651856 C73.9815357,153.920141 73.3383127,150.341575 73.0779605,149.213383 C72.6845395,147.541343 72.9796053,147.049567 74.5532895,147.049567 Z" id="LOGO" fill="#EA6E1C" fill-rule="nonzero"></path>
        </g>
    </g>
</svg>