<?xml version="1.0" encoding="UTF-8"?>
<svg width="271px" height="336px" viewBox="0 0 271 336" version="1.1" xmlns="http://www.w3.org/2000/svg" xmlns:xlink="http://www.w3.org/1999/xlink">
<style><![CDATA[
  @media (prefers-color-scheme: dark) {
    /* Pen nib & text: dark #2C2C2C -- light gray */
    g[id="笔尾"],
    path[id*="字"],
    path[id*="字"] { fill: #e0e0e0 !important; }
    /* WRITE WITH WISDOM text */
    text { fill: #bbb !important; }
  }
]]></style>
    <title>编组</title>
    <g id="页面-1" stroke="none" stroke-width="1" fill="none" fill-rule="evenodd">
        <g id="编组" transform="translate(0.5, 0.4914)" fill-rule="nonzero">
            <g id="LOGO图像" transform="translate(15.5, 0)">
                <g id="笔尾" transform="translate(76.1, 0)" fill="#2C2C2C">
                    <path d="M13.9,155.50859 C9.9,159.50859 11.9,163.50859 19.5,167.10859 C25.7,170.00859 35.1,178.30859 40.5,185.60859 C42.4,188.30859 44.4,190.50859 44.8,190.50859 C45.1,190.50859 47.5,187.70859 49.9,184.40859 C55,177.40859 62.9,170.50859 70.1,166.90859 C77,163.40859 78.7,159.30859 74.9,155.50859 C73,153.60859 71.6,153.50859 44.4,153.50859 C17.2,153.50859 15.8,153.60859 13.9,155.50859"></path>
                    <path d="M35.3,13.2085896 C27.1,33.1085896 13.9,55.8085896 4.6,66.1085896 L0,71.2085896 L3.4,79.1085896 C9.6,93.5085896 16.1,120.20859 17.7,138.00859 L18.4,146.00859 L44.7,146.30859 L70.9,146.50859 L70.9,141.60859 C70.9,129.30859 78.1,97.4085896 84.7,80.7085896 L88.5,70.9085896 L84.4,66.3085896 C74.5,55.4085896 60.3,30.4085896 52.5,10.3085896 C50.4,4.90858959 48.3,0.308589591 47.8,0.00858959069 C47.3,-0.391410409 46.9,13.2085896 46.9,34.6085896 L46.9,69.9085896 L50.4,73.1085896 C54.7,77.0085896 55,81.0085896 51.3,85.4085896 C49.2,88.0085896 48,88.5085896 44.4,88.5085896 C40.8,88.5085896 39.6,88.0085896 37.5,85.4085896 C33.6,80.9085896 34.3,76.4085896 39.6,72.0085896 L41.9,70.0085896 L41.7,34.5085896 C41.5,5.70858959 41.2,-0.491410409 40.2,1.70858959 C39.5,3.20858959 37.3,8.40858959 35.3,13.2085896 Z" id="笔尖"></path>
                </g>
                <path d="M2,108.50859 C6.3,104.20859 15.1,107.40859 17.8,114.20859 C17.9285714,114.551447 18.1352041,115.289202 18.4021866,116.34609 L18.5121563,116.785686 C19.5112449,120.815957 21.2342857,128.704304 22.9,137.10859 L23.0004056,137.608765 C23.0676079,137.942312 23.1353306,138.276011 23.2035124,138.609613 L23.409374,139.609885 L23.6176232,140.608095 C25.6759412,150.408819 28.0272727,159.694953 29.1,162.10859 C32.9,170.20859 41.1,177.40859 54,183.80859 C64.5,189.10859 68,190.40859 68,189.00859 C68,188.70859 65.3,184.40859 62.1,179.60859 C53.2,166.50859 49.5,158.80859 49.5,154.00859 C49.5,148.50859 51.3,146.50859 56,146.50859 C60.8,146.50859 62.6,148.00859 70.8,159.00859 C76.5,166.60859 79,168.90859 86.9,174.20859 C99.3,182.40859 105.3,188.40859 109.6,197.00859 C114.1,206.30859 115,211.70859 115,230.60859 L115,246.50859 L68,246.50859 L68,242.20859 C68,237.40859 65.5,231.40859 61.7,226.90859 C60.2692308,225.191667 52.6516686,219.198578 44.488213,213.268477 L43.6966864,212.694938 L43.3,212.40859 C22.3,197.30859 16,191.00859 13.2,182.50859 C12.24,179.58059 9.16032,164.39531 6.2170368,148.885626 L5.85,146.94609 L5.4853632,145.008353 C2.58048,129.52747 0,114.71659 0,112.50859 C0,111.40859 0.9,109.60859 2,108.50859 Z M226.1,109.00859 C229.7,106.10859 235.4,105.60859 238.2,108.20859 C239.3,109.20859 240,111.20859 240,113.30859 C240,117.40859 231.8,164.30859 228.9,176.80859 C225.5,191.20859 223.4,193.40859 191.4,217.00859 C178.8,226.20859 174.7,231.50859 172.9,240.60859 L171.7,246.50859 L126,246.50859 L126.000451,229.057942 C126.026109,210.768581 127.15814,204.798124 132.1,195.40859 C135.9,188.40859 144.5,179.90859 152.5,175.40859 C159.8,171.30859 165.1,166.10859 171.8,156.50859 C177.7,148.20859 179.8,146.40859 184,146.30859 C187.6,146.20859 190.7,148.70859 191.5,152.60859 C192.3,156.30859 190.1,161.10859 180.6,176.50859 C176.4,183.20859 173.1,189.20859 173.2,189.70859 C173.4,190.10859 178.6,188.00859 184.7,185.00859 C198.6,178.20859 207.4,170.50859 211.3,161.80859 C212.8,158.30859 215.3,148.30859 217.5,137.00859 C221.9,113.70859 222.4,112.20859 226.1,109.00859 Z M210.2,113.00859 C214,111.40859 215.7,111.20859 216.4,112.30859 C216.816,113.03659 214.528,124.79691 211.940397,136.5237 L211.640634,137.876013 C209.33436,148.23295 206.866,158.23059 205.9,160.20859 C203.8,164.60859 195.6,172.70859 190.1,175.80859 L187,177.60859 L192.1,168.00859 C196.774713,159.231578 197.353706,157.735846 199.828342,142.942363 L200.010618,141.849504 C200.072533,141.477304 200.135632,141.097095 200.2,140.70859 C203.7,120.10859 205.5,115.10859 210.2,113.00859 Z M23.9,112.20859 C24.2,109.90859 32.4,112.90859 34.5,116.20859 C35.4,117.50859 37.5,126.30859 39.1,135.80859 C41.332,148.70459 42.33392,154.06635 44.0838824,158.757716 L44.2556352,159.209857 C44.3717824,159.510196 44.4913088,159.808666 44.6147456,160.107111 L44.8029,160.55499 C45.759,162.79659 46.95,165.08859 48.6,168.20859 C51,172.80859 52.6,176.50859 52.2,176.50859 C50.4,176.50859 40.2,168.50859 37.6,165.10859 C37.306,164.72359 37.02768,164.34986 36.7627762,163.980197 L36.5389486,163.664171 C36.3918502,163.453927 36.2489214,163.244339 36.1097398,163.034063 L35.903725,162.717965 C33.0235,158.22784 31.74,153.12359 28,134.50859 C24.524,117.28659 23.85645,114.10684 23.8279784,112.939188 L23.8273808,112.81421 C23.8288816,112.722751 23.8347532,112.643503 23.8434864,112.568096 L23.8516376,112.504207 C23.8560284,112.472538 23.8608656,112.441135 23.8660304,112.40934 L23.8767616,112.345031 L23.8881552,112.278505 Z M196.3,124.50859 C197.9,124.50859 198.1,125.00859 197.7,127.20859 C197.4,128.80859 196.6,133.40859 196,137.60859 L194.8,145.20859 L192.2,142.80859 C190.8,141.60859 189.1,140.50859 188.4,140.50859 C184.9,140.50859 187.9,129.10859 192.1,126.10859 C193.4,125.20859 195.3,124.50859 196.3,124.50859 Z M43.8,124.50859 C48.4,124.50859 53,131.30859 53,138.00859 C53,139.70859 50.6,141.80859 45.9,144.20859 C45.6,144.40859 44.8,141.00859 44.1,136.80859 C43.4,132.50859 42.6,128.00859 42.3,126.70859 C41.9,125.00859 42.2,124.50859 43.8,124.50859 Z" id="LOGO" fill="#D97757"></path>
            </g>
            <path d="M75.2,280.00859 C67,282.30859 66.8,282.40859 69.3,284.10859 C71.5,285.60859 71.5,286.10859 71.5,308.60859 C71.5,328.10859 71.3,331.60859 70,332.10859 C66.3,333.60859 69.2,334.50859 77.2,334.50859 L85.9,334.50859 L83.7,332.50859 C81.8,330.70859 81.5,329.30859 81.5,323.50859 C81.5,319.60859 81.7,316.50859 82,316.50859 C82.2,316.50859 85,319.80859 88.1,323.70859 C96.2,334.10859 96.7,334.50859 103.6,334.50859 C109.8,334.50859 110.8,333.80859 107.5,331.70859 C106.4,331.10859 102.1,326.20859 97.9,320.90859 L90.3,311.30859 L93.9,307.60859 C95.9,305.60859 99.3,302.80859 101.5,301.40859 C103.7,300.10859 105.5,298.60859 105.5,298.20859 C105.5,297.80859 102.6,297.50859 99,297.70859 C95.4,297.80859 92.5,298.10859 92.5,298.30859 C92.5,298.60859 93.3,299.40859 94.3,300.10859 C95.8,301.30859 95.4,302.00859 88.8,308.70859 L81.5,316.00859 L81.5,297.20859 C81.5,286.90859 81.2,278.50859 80.8,278.60859 C80.3,278.60859 77.9,279.30859 75.2,280.00859 M186.8,282.70859 C183.3,287.10859 185.7,292.00859 191.1,291.30859 C194.5,290.90859 196.6,286.50859 194.9,283.70859 C193.5,281.60859 188.2,280.90859 186.8,282.70859 M2.8,285.60859 L5.5,287.70859 L5.5,329.60859 L2.9,332.00859 L0.2,334.50859 L19.8,334.50859 L17.7,332.20859 C15.6,330.00859 15.5,329.10859 15.5,308.30859 C15.5,287.10859 15.5,286.70859 17.8,285.20859 C19.9,283.70859 19.4,283.60859 10,283.60859 L0,283.60859 L2.8,285.60859 Z M106.7,285.40859 C108.6,286.90859 111.2,293.10859 117.5,310.90859 C124.1,329.70859 126.2,334.50859 127.6,334.50859 C130,334.50859 130.1,334.30859 137.1,315.10859 L143.2,298.30859 L147.8,310.60859 C157.1,335.90859 156.5,334.60859 158.8,334.30859 C160.4,334.10859 161.5,332.00859 164.1,324.50859 C174.5,294.00859 176.8,287.80859 178.7,285.70859 L180.8,283.50859 L168,283.50859 L170.8,285.80859 L173.6,288.00859 L168.6,302.70859 C164.3,315.40859 161.6,322.20859 161.5,320.50859 C161.5,320.20859 159.3,313.70859 156.5,306.00859 C150.9,290.30859 150.5,287.40859 153.8,285.20859 C155.9,283.70859 155.3,283.60859 145.5,283.60859 C137.1,283.60859 135.3,283.80859 136.5,284.80859 C139,286.70859 141.5,290.80859 141.5,292.80859 C141.5,295.20859 132.4,320.50859 131.6,320.50859 C130.8,320.50859 121.4,290.60859 121.5,288.40859 C121.5,287.50859 122.5,286.00859 123.8,285.20859 C125.9,283.70859 125.3,283.60859 115.1,283.60859 L104.2,283.50859 L106.7,285.40859 Z M212.3,297.70859 C205.1,299.60859 201.2,307.80859 205,313.20859 C205.8,314.40859 209.6,316.80859 213.3,318.50859 C221.4,322.40859 223.5,324.10859 223.5,327.10859 C223.5,330.40859 220.9,332.50859 216.9,332.50859 C212.2,332.50859 210,331.20859 206.5,326.30859 L203.5,322.20859 L203.5,332.40859 L209.1,334.10859 C221.1,337.60859 231.7,332.30859 231.7,323.00859 C231.7,318.20859 229.4,315.90859 221,312.00859 C212.7,308.20859 211,306.50859 211.9,303.00859 C213.4,297.10859 222.2,298.30859 226.4,304.80859 L228.5,308.00859 L228.5,298.70859 L223.5,297.60859 C217.7,296.30859 217.3,296.40859 212.3,297.70859 M28.7,299.30859 C23.5,301.00859 23.5,301.00859 25.5,302.70859 C27.3,304.30859 27.5,305.60859 27.5,317.20859 C27.5,328.80859 27.3,330.10859 25.3,332.20859 L23.2,334.50859 L31.8,334.50859 C36.6,334.50859 40.5,334.30859 40.5,334.00859 C40.5,333.70859 39.6,332.60859 38.5,331.50859 C36.6,329.60859 36.5,328.40859 36.7,317.80859 C37,306.60859 37.1,306.20859 39.7,304.20859 C43,301.80859 46.9,301.70859 49.5,304.00859 C51.3,305.60859 51.5,307.20859 51.5,318.50859 C51.5,330.60859 51.4,331.30859 49.3,332.80859 C47.1,334.30859 47.5,334.40859 55.9,334.40859 C64.5,334.50859 64.7,334.40859 63.2,332.70859 C61.8,331.20859 61.5,328.60859 61.5,318.60859 C61.5,301.20859 59.6,297.50859 50.5,297.50859 C45.8,297.50859 43.2,298.60859 39.3,302.30859 L36.5,304.90859 L36.5,301.20859 C36.5,297.00859 36.3,297.00859 28.7,299.30859 M186.2,299.30859 C181.5,301.00859 181.5,301.10859 183.5,302.70859 C185.3,304.30859 185.5,305.70859 185.5,317.50859 C185.5,329.50859 185.3,330.60859 183.3,332.50859 L181.1,334.50859 L189.8,334.50859 C197.8,334.50859 200.7,333.60859 197,332.10859 C195.7,331.70859 195.5,328.70859 195.5,314.50859 C195.5,295.10859 196,295.90859 186.2,299.30859 M245.7,299.20859 C233.2,305.30859 232.3,324.10859 244.2,332.10859 C251.5,337.00859 260.1,335.90859 266.6,329.40859 C271.2,324.80859 271.2,323.20859 266.7,326.50859 C262.7,329.50859 256.6,330.10859 252.7,328.10859 C248.9,326.10859 246.9,323.30859 246.1,318.20859 L245.4,314.50859 L251.2,314.40859 C271.4,314.10859 270,314.30859 270.3,311.00859 C270.6,307.20859 267.5,302.10859 263.3,299.50859 C259.2,297.00859 250.4,296.90859 245.7,299.20859 M259.1,302.00859 C260,303.40859 260.8,306.20859 260.9,308.30859 L261,312.00859 L254.6,312.30859 C246,312.70859 245.5,312.40859 246.5,308.00859 C247.8,302.00859 250.1,299.50859 254,299.50859 C256.6,299.50859 257.9,300.10859 259.1,302.00859" id="下方字" fill="#2C2C2C"></path>
        </g>
    </g>
</svg>