<?xml version="1.0" encoding="UTF-8"?>
<svg width="603px" height="170px" viewBox="0 0 603 170" version="1.1" xmlns="http://www.w3.org/2000/svg" xmlns:xlink="http://www.w3.org/1999/xlink">
<style><![CDATA[
  @media (prefers-color-scheme: dark) {
    g[id="笔尾"] { fill: #e0e0e0 !important; }
    path[id*="字"] { fill: #e0e0e0 !important; }
    text { fill: #bbb !important; }
  }
]]></style>
    <title>横logo</title>
    <g id="页面-1" stroke="none" stroke-width="1" fill="none" fill-rule="evenodd">
        <g id="横logo" transform="translate(0, -0)">
            <g id="LOGO图像" fill-rule="nonzero">
                <g id="笔尾" transform="translate(52, 0)" fill="#2C2C2C">
                    <path d="M9.42372881,105.300281 C6.71186441,108.008821 8.06779661,110.71736 13.220339,113.155045 C17.4237288,115.118736 23.7966102,120.738955 27.4576271,125.682039 C28.7457627,127.510303 30.1016949,129 30.3728814,129 C30.5762712,129 32.2033898,127.104022 33.8305085,124.869478 C37.2881356,120.129534 42.6440678,115.457304 47.5254237,113.019618 C52.2033898,110.649646 53.3559322,107.873394 50.779661,105.300281 C49.4915254,104.013725 48.5423729,103.946012 30.1016949,103.946012 C11.6610169,103.946012 10.7118644,104.013725 9.42372881,105.300281"></path>
                    <path d="M23.9322034,8.94399597 C18.3728814,22.4189789 9.42372881,37.7899394 3.11864407,44.7644281 L0,48.2178157 L2.30508475,53.5671808 C6.50847458,63.3179222 10.9152542,81.397422 12,93.4504218 L12.4745763,98.8675004 L30.3050847,99.0706408 L48.0677966,99.2060678 L48.0677966,95.8881072 C48.0677966,87.5593489 52.9491525,65.958748 57.4237288,54.6505965 L60,48.0146752 L57.220339,44.899855 C50.5084746,37.5190855 40.8813559,20.5907149 35.5932203,6.98030498 C34.1694915,3.32377694 32.7457627,0.208956758 32.4067797,0.00581631097 C32.0677966,-0.265037618 31.7966102,8.94399597 31.7966102,23.4346812 L31.7966102,47.3375404 L34.1694915,49.5043718 C37.0847458,52.1451976 37.2881356,54.8537369 34.779661,57.8331302 C33.3559322,59.5936807 32.5423729,59.9322481 30.1016949,59.9322481 C27.6610169,59.9322481 26.8474576,59.5936807 25.4237288,57.8331302 C22.779661,54.7860235 23.2542373,51.7389168 26.8474576,48.7595235 L28.4067797,47.4052539 L28.2711864,23.3669677 C28.1355932,3.8654848 27.9322034,-0.3327511 27.2542373,1.15694551 C26.779661,2.17264774 25.2881356,5.69374882 23.9322034,8.94399597 Z" id="笔尖"></path>
                </g>
                <path d="M1.35833333,73.3370088 C4.27875,70.4496837 10.2554167,72.5983907 12.0891667,77.1643932 C12.4966667,78.2387467 14.05875,85.0877504 15.5529167,92.541078 C17.0470833,99.9272584 18.94875,107.51488 19.76375,109.327852 C22.3445833,114.766766 27.91375,119.601357 36.675,123.898771 C43.80625,127.457567 46.1833333,128.33048 46.1833333,127.39042 C46.1833333,127.188979 44.3495833,124.301654 42.17625,121.078593 C36.1316667,112.282324 33.61875,107.111998 33.61875,103.888937 C33.61875,100.195847 34.84125,98.8529049 38.0333333,98.8529049 C41.2933333,98.8529049 42.5158333,99.8601113 48.085,107.246292 C51.95625,112.349471 53.6541667,113.893854 59.0195833,117.45265 C67.44125,122.958712 71.51625,126.987538 74.4366667,132.762188 C77.4929167,139.006868 78.1041667,142.632811 78.1041667,155.323612 L78.1041667,166 L46.1833333,166 L46.1833333,163.112675 C46.1833333,159.889614 44.4854167,155.860789 41.9045833,152.839169 C40.8858333,151.630522 35.24875,147.26596 29.4079167,143.102841 C15.1454167,132.963629 10.8666667,128.733362 8.965,123.025859 C8.34016667,121.141712 6.393186,111.698735 4.47264828,101.74909 L4.22240416,100.449016 C4.18075875,100.232051 4.13915354,100.014992 4.09760239,99.797911 L3.8490551,98.495738 C1.82636067,87.8686272 0,77.5363881 0,76.0228926 C0,75.2842745 0.61125,74.0756268 1.35833333,73.3370088 Z M153.559583,73.6727443 C156.004583,71.7254785 159.875833,71.389743 161.7775,73.1355675 C162.524583,73.8070384 163,75.1499803 163,76.5600693 C163,78.0191757 161.435621,87.551055 159.671879,97.4382872 L159.471432,98.5586999 C159.437907,98.7455501 159.404329,98.9324232 159.370707,99.1192672 L159.16853,100.239569 C157.750667,108.073437 156.288475,115.673252 155.46125,119.198475 C153.152083,128.867656 151.725833,130.344893 129.9925,146.191607 C121.435,152.36914 118.650417,155.927936 117.427917,162.038321 L116.612917,166 L85.575,166 L85.5755544,154.133808 C85.598993,141.96916 86.3751432,137.967137 89.7179167,131.687834 C92.29875,126.987538 98.1395833,121.280035 103.572917,118.258415 C108.530833,115.505384 112.130417,112.013736 116.680833,105.567614 C120.687917,99.9944055 122.114167,98.7857578 124.966667,98.7186107 C127.411667,98.6514636 129.517083,100.330141 130.060417,102.948878 C130.60375,105.43332 129.109583,108.656381 122.6575,118.997033 C119.805,123.495889 117.56375,127.524715 117.631667,127.86045 C117.7675,128.129038 121.299167,126.718949 125.442083,124.704537 C134.8825,120.138534 140.859167,114.968208 143.507917,109.12641 C144.526667,106.776262 146.224583,100.061553 147.71875,92.4739309 C150.707083,76.8286577 151.046667,75.8214513 153.559583,73.6727443 Z M142.760833,76.3586281 C145.341667,75.2842745 146.49625,75.1499803 146.971667,75.8885984 C147.2379,76.3492275 145.873454,83.3876397 144.244675,90.7867014 L144.044005,91.6940887 C142.395924,99.1122337 140.539279,106.637268 139.840417,108.052057 C138.414167,111.006529 132.845,116.445444 129.109583,118.527004 L127.004167,119.735651 L130.467917,113.28953 C133.795833,107.111998 134.0675,106.306232 135.969167,94.9583734 C138.34625,81.1260718 139.56875,77.7687171 142.760833,76.3586281 Z M16.2320833,75.8214513 C16.4358333,74.2770681 22.005,76.291481 23.43125,78.5073351 C23.8866912,79.1577403 24.7945968,82.6040049 25.6773655,86.9573706 L25.8164715,87.652007 C26.0708609,88.9383175 26.3210376,90.2923086 26.5554167,91.6681657 C26.8411959,93.300625 27.0972838,94.7532854 27.3326817,96.0570268 L27.4866472,96.9044646 C29.1487245,105.991052 29.8057143,107.438141 33.0075,113.423825 C34.6375,116.512591 35.7241667,118.997033 35.4525,118.997033 C34.23,118.997033 27.3025,113.625266 25.5366667,111.342265 C22.6841667,107.649174 22.005,105.500467 19.0166667,90.7952535 C16.632037,79.114372 16.1935411,77.0538995 16.182714,76.2886732 L16.1826894,76.2329101 C16.1828141,76.2239863 16.1830012,76.2152363 16.1832476,76.2066432 L16.1854127,76.1568318 C16.1896536,76.0845333 16.1981978,76.0222069 16.2088,75.957543 L16.2200051,75.891644 C16.2239134,75.869114 16.2279672,75.8458684 16.2320833,75.8214513 Z M133.320417,84.080544 C134.407083,84.080544 134.542917,84.4162795 134.27125,85.8935156 C134.098846,86.8025839 133.683309,89.1539242 133.312657,91.5644346 L133.2129,92.2222744 C133.180163,92.4413506 133.148013,92.6598767 133.116667,92.8768134 L132.301667,97.9799927 L130.535833,96.3684624 C129.585,95.5626973 128.430417,94.8240792 127.955,94.8240792 C125.577917,94.8240792 127.615417,87.1693104 130.467917,85.1548975 C131.350833,84.5505737 132.64125,84.080544 133.320417,84.080544 Z M29.7475,84.080544 C32.8716667,84.080544 35.9958333,88.6465465 35.9958333,93.1454018 C35.9958333,94.2869024 34.3658333,95.6969914 31.17375,97.3085217 C30.97,97.4428159 30.4266667,95.1598147 29.95125,92.3396367 C29.9342708,92.2365179 29.917205,92.1332279 29.9000712,92.0298705 L29.7965997,91.409751 C29.363303,88.829488 28.9106696,86.337166 28.72875,85.5577801 C28.4570833,84.4162795 28.6608333,84.080544 29.7475,84.080544 Z" id="LOGO" fill="#D97757"></path>
            </g>
            <path d="M296.454588,24.2052919 C283.597947,27.825986 283.28437,27.9834075 287.204078,30.6595727 C290.65342,33.0208949 290.65342,33.8080023 290.65342,69.227836 C290.65342,99.9250251 290.339844,105.434777 288.301596,106.221884 C282.500428,108.583207 287.047289,110 299.590354,110 L313.230937,110 L309.781594,106.85157 C306.802616,104.017984 306.332251,101.814083 306.332251,92.6836369 C306.332251,86.5441991 306.645828,81.6641331 307.116193,81.6641331 C307.429769,81.6641331 311.819842,86.859042 316.680279,92.9984799 C329.380132,109.370314 330.164074,110 340.982467,110 C350.703342,110 352.271225,108.89805 347.097211,105.592198 C345.372539,104.64767 338.630642,96.9340169 332.045533,88.5906783 L320.129622,73.478216 L325.774001,67.6536211 C328.909767,64.5051915 334.24057,60.09739 337.689912,57.8934892 C341.139255,55.8470099 343.961445,53.4856877 343.961445,52.8560018 C343.961445,52.2263158 339.414584,51.7540514 333.770205,52.0688943 C328.125826,52.2263158 323.578965,52.6985803 323.578965,53.0134232 C323.578965,53.4856877 324.833271,54.7450595 326.401154,55.8470099 C328.752979,57.7360677 328.125826,58.8380181 317.777797,69.3852574 L306.332251,80.8770257 L306.332251,51.2817869 C306.332251,35.0673742 305.861886,21.8439697 305.234733,22.0013911 C304.450791,22.0013911 300.687872,23.1033415 296.454588,24.2052919 M471.540625,28.5940867 C466.127187,35.3997501 469.839258,42.9787844 478.19142,41.8960653 C483.450189,41.2773686 486.698251,34.4717051 484.068867,30.1408284 C481.903492,26.8926708 473.706,25.8099516 471.540625,28.5940867 M182.383838,33.1434185 L186.611111,36.4440079 L186.611111,102.298625 L182.540404,106.070727 L178.313131,110 L209,110 L205.712121,106.385069 C202.424242,102.927308 202.267677,101.51277 202.267677,68.8212181 C202.267677,35.5009823 202.267677,34.8722986 205.868687,32.5147348 C209.156566,30.1571709 208.373737,30 193.656566,30 L178,30 L182.383838,33.1434185 Z M344.949086,32.9803922 C347.950392,35.3333333 352.057441,45.0588235 362.009138,72.9803922 C372.434726,102.470588 375.751958,110 377.963446,110 C381.754569,110 381.912533,109.686275 392.969974,79.5686275 L402.605744,53.2156863 L409.872063,72.5098039 C424.562663,112.196078 423.614883,110.156863 427.248042,109.686275 C429.775457,109.372549 431.513055,106.078431 435.620104,94.3137255 C452.048303,46.4705882 455.681462,36.745098 458.682768,33.4509804 L462,30 L441.780679,30 L446.203655,33.6078431 L450.626632,37.0588235 L442.72846,60.1176471 C435.936031,80.0392157 431.671018,90.7058824 431.513055,88.0392157 C431.513055,87.5686275 428.037859,77.372549 423.614883,65.2941176 C414.76893,40.6666667 414.137076,36.1176471 419.349869,32.6666667 C422.667102,30.3137255 421.719321,30.1568627 406.238903,30.1568627 C392.969974,30.1568627 390.126632,30.4705882 392.022193,32.0392157 C395.971279,35.0196078 399.920366,41.4509804 399.920366,44.5882353 C399.920366,48.3529412 385.545692,88.0392157 384.281984,88.0392157 C383.018277,88.0392157 368.169713,41.1372549 368.327676,37.6862745 C368.327676,36.2745098 369.907311,33.9215686 371.960836,32.6666667 C375.278068,30.3137255 374.330287,30.1568627 358.218016,30.1568627 L341,30 L344.949086,32.9803922 Z M511.730496,51.6258158 C500.496454,54.6352926 494.411348,67.623561 500.340426,76.1768109 C501.588652,78.0775331 507.51773,81.8789775 513.29078,84.5716672 C525.929078,90.7490144 529.205674,93.4417042 529.205674,98.1935096 C529.205674,103.420496 525.148936,106.74676 518.907801,106.74676 C511.574468,106.74676 508.141844,104.687644 502.680851,96.9263615 L498,90.4322273 L498,106.588366 L506.737589,109.281056 C525.460993,114.824829 542,106.429972 542,91.6993755 C542,84.0964867 538.411348,80.4534358 525.304965,74.2760887 C512.35461,68.257135 509.702128,65.5644453 511.106383,60.0206722 C513.446809,50.6754547 527.177305,52.5761769 533.730496,62.8717555 L537.007092,67.940348 L537.007092,53.209751 L529.205674,51.4674223 C520.156028,49.4083066 519.531915,49.5667001 511.730496,51.6258158 M222.645847,54.8216216 C214.471592,57.4864865 214.471592,57.4864865 217.615536,60.1513514 C220.445086,62.6594595 220.75948,64.6972973 220.75948,82.8810811 C220.75948,101.064865 220.445086,103.102703 217.301142,106.394595 L214,110 L227.51896,110 C235.064427,110 241.195118,109.686486 241.195118,109.216216 C241.195118,108.745946 239.780343,107.021622 238.051174,105.297297 C235.064427,102.318919 234.90723,100.437838 235.221624,83.8216216 C235.693216,66.2648649 235.850413,65.6378378 239.93754,62.5027027 C245.125048,58.7405405 251.25574,58.5837838 255.342867,62.1891892 C258.172417,64.6972973 258.486812,67.2054054 258.486812,84.9189189 C258.486812,103.886486 258.329614,104.983784 255.028473,107.335135 C251.570134,109.686486 252.198923,109.843243 265.403489,109.843243 C278.92245,110 279.236844,109.843243 276.878886,107.178378 C274.678125,104.827027 274.206533,100.751351 274.206533,85.0756757 C274.206533,57.8 271.219786,52 256.91484,52 C249.52657,52 245.439443,53.7243243 239.308752,59.5243243 L234.90723,63.6 L234.90723,57.8 C234.90723,51.2162162 234.592835,51.2162162 222.645847,54.8216216 M470.872889,54.9539762 C463.617481,57.612449 463.617481,57.7688297 466.704889,60.2709217 C469.483555,62.7730137 469.792296,64.9623442 469.792296,83.4152726 C469.792296,102.180963 469.483555,103.901151 466.396148,106.872385 L463,110 L476.430222,110 C488.779851,110 493.256591,108.592573 487.544888,106.246862 C485.538073,105.621339 485.229332,100.929917 485.229332,78.7238501 C485.229332,48.3859848 486.001184,49.6370308 470.872889,54.9539762 M563.798552,54.5942387 C543.895343,64.1669307 542.462312,93.6696534 561.410167,106.224003 C573.033641,113.913543 586.727049,112.18732 597.076717,101.98691 C604.401098,94.768159 604.401098,92.257289 597.235943,97.4359584 C590.866916,102.14384 581.15415,103.085416 574.944349,99.9468284 C568.893773,96.8082409 565.70926,92.4142184 564.435454,84.4108202 L563.320875,78.6044333 L572.555964,78.4475039 C604.71955,77.9767158 602.49039,78.2905745 602.968067,73.1119051 C603.445744,67.1485888 598.509748,59.1451907 591.82227,55.0650269 C585.294018,51.1417925 571.282158,50.9848631 563.798552,54.5942387 M585.933842,58.8672931 C587.386232,61.0329773 588.677246,65.3643456 588.838623,68.6128718 L589,74.3364656 L578.671888,74.8005408 C564.793487,75.4193077 563.986603,74.9552325 565.60037,68.1487966 C567.698268,58.8672931 571.409934,55 577.703627,55 C581.899423,55 583.997321,55.9281503 585.933842,58.8672931" id="右侧字" fill="#2C2C2C" fill-rule="nonzero"></path>
            <text id="WRITE-WITH-WISDOM" font-family="STHeitiSC-Medium, Heiti SC" font-size="36" font-weight="bold" letter-spacing="4.5" fill="#333333" fill-opacity="0.85">
                <tspan x="177" y="165">WRITE WITH WISDOM</tspan>
            </text>
        </g>
    </g>
</svg>